HIERARCHY
ROOT Hips
{
	OFFSET 0.000000 0.000000 0.000000
	CHANNELS 6 Xposition Yposition Zposition Xrotation Yrotation Zrotation
	JOINT LeftUpLeg_virtual
	{
		OFFSET 0.000000 0.000000 0.000000
		CHANNELS 3 Xrotation Yrotation Zrotation
		JOINT LeftUpLeg
		{
			OFFSET 13.026900 -6.336304 -1.092800
			CHANNELS 3 Xrotation Yrotation Zrotation
			JOINT LeftLeg
			{
				OFFSET 0.524474 -46.096886 9.782700
				CHANNELS 3 Xrotation Yrotation Zrotation
				JOINT LeftFoot
				{
					OFFSET -0.524474 -53.427422 -12.948200
					CHANNELS 3 Xrotation Yrotation Zrotation
					JOINT LeftToeBase
					{
						OFFSET 0.192200 -14.009700 16.364100
						CHANNELS 3 Xrotation Yrotation Zrotation
						JOINT LeftToe_End
						{
							OFFSET -1.784700 -0.561700 9.474800
							CHANNELS 3 Xrotation Yrotation Zrotation
							End Site
							{
								OFFSET 0 0 0
							}
						}
					}
				}
			}
		}
	}
	JOINT RightUpLeg_virtual
	{
		OFFSET 0.000000 0.000000 0.000000
		CHANNELS 3 Xrotation Yrotation Zrotation
		JOINT RightUpLeg
		{
			OFFSET -12.883000 -6.336304 -1.092800
			CHANNELS 3 Xrotation Yrotation Zrotation
			JOINT RightLeg
			{
				OFFSET -0.524587 -46.096825 9.782800
				CHANNELS 3 Xrotation Yrotation Zrotation
				JOINT RightFoot
				{
					OFFSET 0.524587 -53.427383 -12.948300
					CHANNELS 3 Xrotation Yrotation Zrotation
					JOINT RightToeBase
					{
						OFFSET -0.192200 -14.009700 16.364100
						CHANNELS 3 Xrotation Yrotation Zrotation
						JOINT RightToe_End
						{
							OFFSET 1.784700 -0.561700 9.474800
							CHANNELS 3 Xrotation Yrotation Zrotation
							End Site
							{
								OFFSET 0 0 0
							}
						}
					}
				}
			}
		}
	}
	JOINT Spine_virtual
	{
		OFFSET 0.000000 0.000000 0.000000
		CHANNELS 3 Xrotation Yrotation Zrotation
		JOINT Spine
		{
			OFFSET 0.072000 7.257294 -0.789700
			CHANNELS 3 Xrotation Yrotation Zrotation
			JOINT Spine1
			{
				OFFSET 0.000000 12.508769 -0.658067
				CHANNELS 3 Xrotation Yrotation Zrotation
				JOINT Spine1_split
				{
					OFFSET 0.000000 12.508769 -0.658067
					CHANNELS 3 Xrotation Yrotation Zrotation
					JOINT Spine2
					{
						OFFSET 0.000000 12.508769 -0.658067
						CHANNELS 3 Xrotation Yrotation Zrotation
						JOINT Neck_virtual
						{
							OFFSET 0.000000 0.000000 0.000000
							CHANNELS 3 Xrotation Yrotation Zrotation
							JOINT Neck
							{
								OFFSET 0.000000 14.033295 7.520400
								CHANNELS 3 Xrotation Yrotation Zrotation
								JOINT Head
								{
									OFFSET 0.000000 8.198502 5.703100
									CHANNELS 3 Xrotation Yrotation Zrotation
									JOINT HeadTop_End
									{
										OFFSET 0.000000 17.760803 13.332701
										CHANNELS 3 Xrotation Yrotation Zrotation
										End Site
										{
											OFFSET 0 0 0
										}
									}
								}
							}
						}
						JOINT LeftShoulder_virtual
						{
							OFFSET 0.000000 0.000000 0.000000
							CHANNELS 3 Xrotation Yrotation Zrotation
							JOINT LeftShoulder
							{
								OFFSET 6.292450 5.785301 -0.669000
								CHANNELS 3 Xrotation Yrotation Zrotation
								JOINT LeftShoulder_split
								{
									OFFSET 6.292450 5.785301 -0.669000
									CHANNELS 3 Xrotation Yrotation Zrotation
									JOINT LeftArm
									{
										OFFSET 13.907140 -6.093903 1.965100
										CHANNELS 3 Xrotation Yrotation Zrotation
										JOINT LeftForeArm
										{
											OFFSET 34.140198 0.000000 0.000000
											CHANNELS 3 Xrotation Yrotation Zrotation
											JOINT LeftHand
											{
												OFFSET 40.960209 0.000000 0.000000
												CHANNELS 3 Xrotation Yrotation Zrotation
												End Site
												{
													OFFSET 0 0 0
												}
											}
										}
									}
								}
							}
						}
						JOINT RightShoulder_virtual
						{
							OFFSET 0.000000 0.000000 0.000000
							CHANNELS 3 Xrotation Yrotation Zrotation
							JOINT RightShoulder
							{
								OFFSET -6.292450 5.785301 -0.669000
								CHANNELS 3 Xrotation Yrotation Zrotation
								JOINT RightShoulder_split
								{
									OFFSET -6.292450 5.785301 -0.669000
									CHANNELS 3 Xrotation Yrotation Zrotation
									JOINT RightArm
									{
										OFFSET -13.907140 -6.093903 1.965100
										CHANNELS 3 Xrotation Yrotation Zrotation
										JOINT RightForeArm
										{
											OFFSET -34.140198 0.000000 0.000000
											CHANNELS 3 Xrotation Yrotation Zrotation
											JOINT RightHand
											{
												OFFSET -40.960209 0.000000 0.000000
												CHANNELS 3 Xrotation Yrotation Zrotation
												End Site
												{
													OFFSET 0 0 0
												}
											}
										}
									}
								}
							}
						}
					}
				}
			}
		}
	}
}
MOTION
Frames: 4
Frame Time: 0.03333333
-1.439222 114.361015 0.124783 0.000000 0.000000 0.000000 -19.779698 -82.297448 -21.389395 -17.004862 14.895553 9.626995 25.422867 -2.950706 4.692605 -7.020210 0.976809 -6.760067 -0.000075 0.000014 0.000001 0.000000 0.000000 0.000000 -19.779698 -82.297448 -21.389395 -12.528939 -23.636814 -7.409983 22.182480 8.900723 -8.422241 -7.829699 -1.324578 9.934966 -0.001927 0.000008 0.000002 0.000000 0.000000 0.000000 -19.779698 -82.297448 -21.389395 2.270155 0.122769 0.464973 4.588851 0.048044 1.587649 0.000000 0.000000 0.000000 0.000000 0.000000 0.000000 4.566499 0.058996 1.631779 -6.449450 9.163145 -4.228990 1.306331 37.856655 -3.127864 0.000000 0.000000 0.000000 4.566499 0.058996 1.631779 -0.232473 4.637867 -1.359673 0.000000 0.000000 0.000000 25.122249 -77.231217 -42.206235 0.000004 -14.145793 -0.000010 0.000000 0.000000 0.000000 4.566499 0.058996 1.631779 1.612990 4.329180 7.043631 0.000000 0.000000 0.000000 8.595126 25.593740 60.579530 0.000005 32.803674 0.000001 0.000000 0.000000 0.000000 
-1.453781 114.385956 0.115177 0.000000 0.000000 0.000000 -20.011363 -82.278972 -21.616820 -16.929496 14.908628 9.605541 25.357996 -2.948084 4.709465 -6.993758 0.979402 -6.767808 -0.000001 0.000000 -0.000002 0.000000 0.000000 0.000000 -20.011363 -82.278972 -21.616820 -12.442517 -23.657894 -7.398095 22.116791 8.917194 -8.415042 -7.812987 -1.329195 9.931250 -0.001974 -0.000009 -0.000003 0.000000 0.000000 0.000000 -20.011363 -82.278972 -21.616820 2.258664 0.101075 0.472814 4.568350 0.010020 1.625759 0.000000 0.000000 0.000000 0.000000 0.000000 0.000000 4.545688 0.020619 1.669544 -6.358688 9.200897 -4.344190 1.308286 37.902571 -3.127767 0.000000 0.000000 0.000000 4.545688 0.020619 1.669544 -0.236516 4.731587 -1.616346 0.000000 0.000000 0.000000 28.225007 -77.569079 -39.068183 0.000003 -14.159488 -0.000003 0.000000 0.000000 0.000000 4.545688 0.020619 1.669544 1.625857 4.410183 6.848794 0.000000 0.000000 0.000000 8.546705 25.709175 60.700977 -0.000004 32.649653 0.000003 0.000000 0.000000 0.000000 
-1.466464 114.412735 0.107822 0.000000 0.000000 0.000000 -20.195993 -82.254684 -21.816331 -16.853649 14.865307 9.607180 25.295892 -2.930112 4.708184 -6.973143 0.979719 -6.781638 -0.000005 0.000014 -0.000003 0.000000 0.000000 0.000000 -20.195993 -82.254684 -21.816331 -12.340314 -23.659809 -7.376901 22.031523 8.912606 -8.373476 -7.787637 -1.334120 9.919290 -0.002030 -0.000030 0.000001 0.000000 0.000000 0.000000 -20.195993 -82.254684 -21.816331 2.243371 0.072271 0.503077 4.538629 -0.042549 1.674178 0.000000 0.000000 0.000000 0.000000 0.000000 0.000000 4.515265 -0.031855 1.717975 -6.262548 9.243653 -4.465036 1.306199 37.967761 -3.122502 0.000000 0.000000 0.000000 4.515265 -0.031855 1.717975 -0.241920 4.857610 -1.946192 0.000000 0.000000 0.000000 31.985916 -77.874081 -35.281458 0.000014 -14.201011 0.000017 0.000000 0.000000 0.000000 4.515265 -0.031855 1.717975 1.642509 4.513225 6.629212 0.000000 0.000000 0.000000 8.509119 25.847495 60.828463 0.000002 32.462188 -0.000012 0.000000 0.000000 0.000000 
-1.462161 114.433510 0.096260 0.000000 0.000000 0.000000 -20.224846 -82.224030 -21.865879 -16.809922 14.776298 9.602811 25.246812 -2.884813 4.717394 -6.946198 0.979665 -6.808791 -0.000058 -0.000009 -0.000007 0.000000 0.000000 0.000000 -20.224846 -82.224030 -21.865879 -12.270075 -23.661442 -7.352352 21.960892 8.897343 -8.333749 -7.759766 -1.343977 9.906149 -0.002110 0.000020 0.000001 0.000000 0.000000 0.000000 -20.224846 -82.224030 -21.865879 2.235102 0.048246 0.550020 4.519638 -0.089366 1.726252 0.000000 0.000000 0.000000 0.000000 0.000000 0.000000 4.495336 -0.077923 1.770642 -6.186663 9.287365 -4.580750 1.286596 38.041753 -3.116075 0.000000 0.000000 0.000000 4.495336 -0.077923 1.770642 -0.246493 4.979593 -2.258061 0.000000 0.000000 0.000000 35.894895 -78.150908 -31.336802 0.000001 -14.217757 -0.000003 0.000000 0.000000 0.000000 4.495336 -0.077923 1.770642 1.659756 4.618655 6.455628 0.000000 0.000000 0.000000 8.485929 25.881258 60.941058 0.000011 32.359555 -0.000008 0.000000 0.000000 0.000000 
